<svg width="200" height="480" viewBox="0 0 200 480" fill="none" xmlns="http://www.w3.org/2000/svg">
<path d="M82 375.5C82 387.9 81 418 74.5 444.5L137.5 443C145.5 406 142 417 143 396.5C144 376 140 362.5 128.5 348C117 333.5 103 335.5 101.5 321C100.372 310.092 101.5 277.5 101.5 246C101.5 214.5 106.5 62.5 101.5 50.5C97.371 40.5904 97 37.5 89.5 39C81.5791 40.5842 82 81.5 82 175C82 268.5 83 340 82 375.5Z" fill="#C4C4C4"/>
<path fill-rule="evenodd" clip-rule="evenodd" d="M192.87 480H7.12987C29.1367 453.14 62.5667 436 100 436C137.433 436 170.863 453.14 192.87 480Z" fill="#C4C4C4"/>
</svg>
